<svg fill="none" height="100%" width="100%" viewBox="0 0 4000 824" xmlns="http://www.w3.org/2000/svg"><defs><clipPath id="undefinedi0"><rect height="824" width="4000" y="0" x="0" /></clipPath><filter id="undefinedi1"><feColorMatrix values="0 0 0 0 1 0 0 0 0 1 0 0 0 0 1 0 0 0 1 0" type="matrix" /></filter><mask height="20000" width="20000" y="-10000" x="-10000" maskContentUnits="userSpaceOnUse" maskUnits="userSpaceOnUse" style="mask-type: alpha" mask-type="alpha" id="undefinedi2"><g filter="url(#undefinedi1)"><g transform="translate(2000,0)"><animateTransform repeatCount="indefinite" type="translate" attributeName="transform" dur="4s" begin="0s" calcMode="spline" values="2000 0;2000 0;428.205 0;428.205 0" keyTimes="0;0.25;0.354167;1" keySplines="0 0 1 1;0.91 0 0.833 1;0 0 1 1" fill="freeze" /><g transform="translate(0,412.009)"><animateTransform repeatCount="indefinite" type="translate" attributeName="transform" dur="4s" begin="0s" calcMode="spline" values="0 412.009;0 412.009;0 412.009;0 412.009" keyTimes="0;0.25;0.354167;1" keySplines="0 0 1 1;0.91 0 0.833 1;0 0 1 1" fill="freeze" /><g transform="scale(1,1) translate(-428.205,-412.009)"><g transform="matrix(1,0,0,1,428.205,412.009)"><path fill="#fff" d="M406.208,398.336C406.208,398.336,-235.354,-398.336,-235.354,-398.336C-235.354,-398.336,-406.208,-398.336,-406.208,-398.336C-406.208,-398.336,-406.208,398.004,-406.208,398.004C-406.208,398.004,-269.524,398.004,-269.524,398.004C-269.524,398.004,-269.524,-228.118,-269.524,-228.118C-269.524,-228.118,234.498,398.336,234.498,398.336C234.498,398.336,406.208,398.336,406.208,398.336Z" /></g></g></g></g></g></mask><g mask="url(#undefinedi2)"><g transform="translate(2000,0)"><animateTransform repeatCount="indefinite" type="translate" attributeName="transform" dur="4s" begin="0s" calcMode="spline" values="2000 0;2000 0;428.205 0;428.205 0" keyTimes="0;0.25;0.354167;1" keySplines="0 0 1 1;0.91 0 0.833 1;0 0 1 1" fill="freeze" /><g transform="translate(0,412.009)"><animateTransform repeatCount="indefinite" type="translate" attributeName="transform" dur="4s" begin="0s" calcMode="spline" values="0 412.009;0 412.009;0 412.009;0 412.009" keyTimes="0;0.25;0.354167;1" keySplines="0 0 1 1;0.91 0 0.833 1;0 0 1 1" fill="freeze" /><g transform="scale(1,1) translate(-428.205,-412.009)"><g transform="matrix(1,0,0,1,428.205,376.009)"><path d="M-338,462" stroke-width="152" stroke="#fff"><set fill="freeze" dur="0.016667s" begin="0s" to="M-338,462" attributeName="d" /><set fill="freeze" dur="0.016667s" begin="0.016667s" to="M-338,462C-338,462,-338,460.611,-338,457.947" attributeName="d" /><set fill="freeze" dur="0.016667s" begin="0.033333s" to="M-338,462C-338,462,-338,455.998,-338,445.003" attributeName="d" /><set fill="freeze" dur="0.016667s" begin="0.05s" to="M-338,462C-338,462,-338,447.326,-338,421.83" attributeName="d" /><set fill="freeze" dur="0.016667s" begin="0.066667s" to="M-338,462C-338,461.999,-338,433.471,-338,386.856" attributeName="d" /><set fill="freeze" dur="0.016667s" begin="0.083333s" to="M-338,462C-338,461.999,-338,412.899,-338,338.274" attributeName="d" /><set fill="freeze" dur="0.016667s" begin="0.1s" to="M-338,462C-338,461.999,-338,383.473,-338,274.1" attributeName="d" /><set fill="freeze" dur="0.016667s" begin="0.116667s" to="M-338,462C-338,461.999,-338,342.156,-338,192.365" attributeName="d" /><set fill="freeze" dur="0.016667s" begin="0.133333s" to="M-338,462C-338,461.999,-338,284.497,-338,91.531" attributeName="d" /><set fill="freeze" dur="0.016667s" begin="0.15s" to="M-338,462C-338,461.998,-338,203.485,-338,-28.745" attributeName="d" /><set fill="freeze" dur="0.016667s" begin="0.166667s" to="M-338,462C-338,461.998,-338,85.843,-338,-166.593" attributeName="d" /><set fill="freeze" dur="0.016667s" begin="0.183333s" to="M-338,462C-338,461.997,-338,-110.951,-338,-317.159" attributeName="d" /><set fill="freeze" dur="0.016667s" begin="0.2s" to="M-338,462C-338,461.997,-338,-389.997,-338,-390C-338,-389.999,-318.543,-365.792,-285.991,-325.292" attributeName="d" /><set fill="freeze" dur="0.016667s" begin="0.216667s" to="M-338,462C-338,461.997,-338,-389.997,-338,-390C-337.999,-389.999,-276.919,-314.005,-190.138,-206.035" attributeName="d" /><set fill="freeze" dur="0.016667s" begin="0.233333s" to="M-338,462C-338,461.997,-338,-389.997,-338,-390C-337.999,-389.999,-231.644,-257.676,-100.226,-94.169" attributeName="d" /><set fill="freeze" dur="0.016667s" begin="0.25s" to="M-338,462C-338,461.997,-338,-389.997,-338,-390C-337.999,-389.998,-184.684,-199.249,-18.75,7.201" attributeName="d" /><set fill="freeze" dur="0.016667s" begin="0.266667s" to="M-338,462C-338,461.997,-338,-389.997,-338,-390C-337.999,-389.998,-137.326,-140.328,53.333,96.884" attributeName="d" /><set fill="freeze" dur="0.016667s" begin="0.283333s" to="M-338,462C-338,461.997,-338,-389.997,-338,-390C-337.998,-389.998,-90.375,-81.913,116.075,174.946" attributeName="d" /><set fill="freeze" dur="0.016667s" begin="0.3s" to="M-338,462C-338,461.997,-338,-389.997,-338,-390C-337.998,-389.998,-44.288,-24.572,170.07,242.124" attributeName="d" /><set fill="freeze" dur="0.016667s" begin="0.316667s" to="M-338,462C-338,461.997,-338,-389.997,-338,-390C-337.998,-389.998,0.711,31.413,216.127,299.427" attributeName="d" /><set fill="freeze" dur="0.016667s" begin="0.333333s" to="M-338,462C-338,461.997,-338,-389.997,-338,-390C-337.998,-389.997,44.522,85.922,255.083,347.895" attributeName="d" /><set fill="freeze" dur="0.016667s" begin="0.35s" to="M-338,462C-338,461.997,-338,-389.997,-338,-390C-337.998,-389.997,87.129,138.932,287.73,388.513" attributeName="d" /><set fill="freeze" dur="0.016667s" begin="0.366667s" to="M-338,462C-338,461.997,-338,-389.997,-338,-390C-337.998,-389.997,128.555,190.473,314.774,422.16" attributeName="d" /><set fill="freeze" dur="0.016667s" begin="0.383333s" to="M-338,462C-338,461.997,-338,-389.997,-338,-390C-337.998,-389.997,168.848,240.604,336.837,449.61" attributeName="d" /><set fill="freeze" dur="0.016667s" begin="0.4s" to="M-338,462C-338,461.997,-338,-389.997,-338,-390C-337.998,-389.997,208.068,289.4,354.461,471.537" attributeName="d" /><set fill="freeze" dur="0.016667s" begin="0.416667s" to="M-338,462C-338,461.997,-338,-389.997,-338,-390C-337.998,-389.997,246.279,336.941,368.109,488.518" attributeName="d" /><set fill="freeze" dur="0.016667s" begin="0.433333s" to="M-338,462C-338,461.997,-338,-389.997,-338,-390C-337.997,-389.997,283.542,383.302,378.184,501.053" attributeName="d" /><set fill="freeze" dur="0.016667s" begin="0.45s" to="M-338,462C-338,461.997,-338,-389.997,-338,-390C-337.997,-389.997,319.911,428.551,385.031,509.571" attributeName="d" /><set fill="freeze" dur="0.016667s" begin="0.466667s" to="M-338,462C-338,461.997,-338,-389.997,-338,-390C-337.997,-389.997,355.448,472.766,388.951,514.448" attributeName="d" /><set fill="freeze" dur="0.016667s" begin="0.483333s" to="M-338,462C-338,462,-338,-390,-338,-390C-338,-390,390.205,516.009,390.205,516.009" attributeName="d" /></path></g></g></g></g></g><g display="none"><g transform="translate(2000,0)"><animateTransform repeatCount="indefinite" type="translate" attributeName="transform" dur="4s" begin="0s" calcMode="spline" values="2000 0;2000 0;428.205 0;428.205 0" keyTimes="0;0.25;0.354167;1" keySplines="0 0 1 1;0.91 0 0.833 1;0 0 1 1" fill="freeze" /><g transform="translate(0,412.009)"><animateTransform repeatCount="indefinite" type="translate" attributeName="transform" dur="4s" begin="0s" calcMode="spline" values="0 412.009;0 412.009;0 412.009;0 412.009" keyTimes="0;0.25;0.354167;1" keySplines="0 0 1 1;0.91 0 0.833 1;0 0 1 1" fill="freeze" /><g transform="scale(1,1) translate(-428.205,-412.009)"><g transform="matrix(1,0,0,1,428.205,412.009)"><path fill="#fff" d="M406.208,398.336C406.208,398.336,-235.354,-398.336,-235.354,-398.336C-235.354,-398.336,-406.208,-398.336,-406.208,-398.336C-406.208,-398.336,-406.208,398.004,-406.208,398.004C-406.208,398.004,-269.524,398.004,-269.524,398.004C-269.524,398.004,-269.524,-228.118,-269.524,-228.118C-269.524,-228.118,234.498,398.336,234.498,398.336C234.498,398.336,406.208,398.336,406.208,398.336Z" /></g></g></g></g></g><g display="none"><animate repeatCount="indefinite" begin="0s" calcMode="discrete" dur="4s" values="none;inline;inline" keyTimes="0;0.099792;1" attributeName="display" /><g transform="translate(2613,0)"><animateTransform repeatCount="indefinite" type="translate" attributeName="transform" dur="4s" begin="0s" calcMode="spline" values="2613 0;2613 0;1174.124 0;1174.124 0" keyTimes="0;0.25;0.354167;1" keySplines="0 0 1 1;0.88 0 0.833 1;0 0 1 1" fill="freeze" /><g transform="translate(0,412.175)"><animateTransform repeatCount="indefinite" type="translate" attributeName="transform" dur="4s" begin="0s" calcMode="spline" values="0 412.175;0 412.175;0 412.175;0 412.175" keyTimes="0;0.25;0.354167;1" keySplines="0 0 1 1;0.88 0 0.833 1;0 0 1 1" fill="freeze" /><g transform="scale(1,1) translate(-1174.124,-412.175)"><g transform="matrix(1,0,0,1,1174.124,412.175)"><path d="M-207.008,385.572C-207.008,385.572,-207.942,398.178,-207.942,398.178C-207.942,398.178,-344.5,398.169,-344.5,398.169C-344.5,398.169,-343.624,385.831,-343.624,385.831C-343.624,385.831,-207.008,385.572,-207.008,385.572Z" fill="#fff"><animate repeatCount="indefinite" attributeName="d" dur="4s" begin="0s" calcMode="spline" values="M-207.008,385.572C-207.008,385.572,-207.942,398.178,-207.942,398.178C-207.942,398.178,-344.5,398.169,-344.5,398.169C-344.5,398.169,-343.624,385.831,-343.624,385.831C-343.624,385.831,-207.008,385.572,-207.008,385.572Z;M-207.008,385.572C-207.008,385.572,-207.942,398.178,-207.942,398.178C-207.942,398.178,-344.5,398.169,-344.5,398.169C-344.5,398.169,-343.624,385.831,-343.624,385.831C-343.624,385.831,-207.008,385.572,-207.008,385.572Z;M-207.942,-398.428C-207.942,-398.428,-207.942,398.178,-207.942,398.178C-207.942,398.178,-344.5,398.169,-344.5,398.169C-344.5,398.169,-344.558,-398.169,-344.558,-398.169C-344.558,-398.169,-207.942,-398.428,-207.942,-398.428Z;M-207.942,-398.428C-207.942,-398.428,-207.942,398.178,-207.942,398.178C-207.942,398.178,-344.5,398.169,-344.5,398.169C-344.5,398.169,-344.558,-398.169,-344.558,-398.169C-344.558,-398.169,-207.942,-398.428,-207.942,-398.428Z" keyTimes="0;0.1;0.179167;1" keySplines="0 0 1 1;0.248 0 0 1;0 0 1 1" fill="freeze" /></path></g></g></g></g></g><g transform="translate(2613,0)"><animateTransform repeatCount="indefinite" type="translate" attributeName="transform" dur="4s" begin="0s" calcMode="spline" values="2613 0;2613 0;1174.124 0;1174.124 0" keyTimes="0;0.25;0.354167;1" keySplines="0 0 1 1;0.88 0 0.833 1;0 0 1 1" fill="freeze" /><g transform="translate(0,412.175)"><animateTransform repeatCount="indefinite" type="translate" attributeName="transform" dur="4s" begin="0s" calcMode="spline" values="0 412.175;0 412.175;0 412.175;0 412.175" keyTimes="0;0.25;0.354167;1" keySplines="0 0 1 1;0.88 0 0.833 1;0 0 1 1" fill="freeze" /><g transform="scale(1,1) translate(-1174.124,-412.175)"><g display="none"><animate repeatCount="indefinite" begin="0s" calcMode="discrete" dur="4s" values="none;inline;inline" keyTimes="0;0.312292;1" attributeName="display" /><g transform="translate(1305.566,0)"><animateTransform repeatCount="indefinite" type="translate" attributeName="transform" dur="4s" begin="0s" calcMode="spline" values="1305.566 0;1305.566 0;829.566 0;829.566 0" keyTimes="0;0.345833;0.416666;1" keySplines="0 0 1 1;0.496 0 0.433 1;0 0 1 1" fill="freeze" /><g transform="translate(0,412.05)"><g transform="scale(0,1)"><animateTransform repeatCount="indefinite" type="scale" attributeName="transform" dur="4s" begin="0s" calcMode="spline" values="0 1;0 1;1 1;1 1" keyTimes="0;0.3125;0.375;1" keySplines="0 0 1 1;0.3 0 0.326 1;0 0 1 1" fill="freeze" /><g transform="translate(-829.566,-412.05)"><g transform="matrix(1,0,0,1,1174.124,412.175)"><path fill="#fff" d="M-344.316,-66.223C-344.316,-66.223,236.403,-66.361,236.403,-66.361C236.403,-66.361,236.403,60.832,236.403,60.832C236.403,60.832,-344.316,60.663,-344.316,60.663C-344.316,60.663,-344.316,-66.223,-344.316,-66.223Z" /></g></g></g></g></g></g></g></g></g><g transform="translate(2613,0)"><animateTransform repeatCount="indefinite" type="translate" attributeName="transform" dur="4s" begin="0s" calcMode="spline" values="2613 0;2613 0;1174.124 0;1174.124 0" keyTimes="0;0.25;0.354167;1" keySplines="0 0 1 1;0.88 0 0.833 1;0 0 1 1" fill="freeze" /><g transform="translate(0,412.175)"><animateTransform repeatCount="indefinite" type="translate" attributeName="transform" dur="4s" begin="0s" calcMode="spline" values="0 412.175;0 412.175;0 412.175;0 412.175" keyTimes="0;0.25;0.354167;1" keySplines="0 0 1 1;0.88 0 0.833 1;0 0 1 1" fill="freeze" /><g transform="scale(1,1) translate(-1174.124,-412.175)"><g display="none"><animate repeatCount="indefinite" begin="0s" calcMode="discrete" dur="4s" values="none;inline;inline" keyTimes="0;0.374792;1" attributeName="display" /><g transform="translate(829.566,0)"><g transform="translate(0,77.602)"><g transform="scale(0,1)"><animateTransform repeatCount="indefinite" type="scale" attributeName="transform" dur="4s" begin="0s" calcMode="spline" values="0 1;0 1;1 1;1 1" keyTimes="0;0.375;0.458333;1" keySplines="0 0 1 1;0.167 0 0.275 1;0 0 1 1" fill="freeze" /><g transform="translate(-829.566,-77.602)"><g transform="matrix(1,0,0,1,1174.124,412.175)"><path fill="#fff" d="M344.558,-398.169C344.558,-398.169,344.558,-270.976,344.558,-270.976C344.558,-270.976,-207.816,-270.976,-207.816,-270.976C-207.816,-270.976,-344.5,-270.976,-344.5,-270.976C-344.5,-270.976,-344.558,-270.976,-344.558,-270.976C-344.558,-270.976,-344.558,-398.169,-344.558,-398.169C-344.558,-398.169,344.558,-398.169,344.558,-398.169Z" /></g></g></g></g></g></g></g></g></g><g transform="translate(2613,0)"><animateTransform repeatCount="indefinite" type="translate" attributeName="transform" dur="4s" begin="0s" calcMode="spline" values="2613 0;2613 0;1174.124 0;1174.124 0" keyTimes="0;0.25;0.354167;1" keySplines="0 0 1 1;0.88 0 0.833 1;0 0 1 1" fill="freeze" /><g transform="translate(0,412.175)"><animateTransform repeatCount="indefinite" type="translate" attributeName="transform" dur="4s" begin="0s" calcMode="spline" values="0 412.175;0 412.175;0 412.175;0 412.175" keyTimes="0;0.25;0.354167;1" keySplines="0 0 1 1;0.88 0 0.833 1;0 0 1 1" fill="freeze" /><g transform="scale(1,1) translate(-1174.124,-412.175)"><g display="none"><animate repeatCount="indefinite" begin="0s" calcMode="discrete" dur="4s" values="none;inline;inline" keyTimes="0;0.374792;1" attributeName="display" /><g transform="translate(829.566,0)"><g transform="translate(0,746.738)"><g transform="scale(0,1)"><animateTransform repeatCount="indefinite" type="scale" attributeName="transform" dur="4s" begin="0s" calcMode="spline" values="0 1;0 1;1 1;1 1" keyTimes="0;0.375;0.458333;1" keySplines="0 0 1 1;0.167 0 0.275 1;0 0 1 1" fill="freeze" /><g transform="translate(-829.566,-746.738)"><g transform="matrix(1,0,0,1,1174.124,412.175)"><path fill="#fff" d="M-341.816,270.955C-341.816,270.955,344.558,270.977,344.558,270.977C344.558,270.977,344.558,398.169,344.558,398.169C344.558,398.169,-344.5,398.169,-344.5,398.169C-344.5,398.169,-341.816,270.955,-341.816,270.955Z" /></g></g></g></g></g></g></g></g></g></defs><g transform="matrix(1,0,0,1,0,0)"><g clip-path="url(#undefinedi0)"><g mask="url(#undefinedi2)"><g transform="translate(2000,0)"><animateTransform repeatCount="indefinite" type="translate" attributeName="transform" dur="4s" begin="0s" calcMode="spline" values="2000 0;2000 0;428.205 0;428.205 0" keyTimes="0;0.25;0.354167;1" keySplines="0 0 1 1;0.91 0 0.833 1;0 0 1 1" fill="freeze" /><g transform="translate(0,412.009)"><animateTransform repeatCount="indefinite" type="translate" attributeName="transform" dur="4s" begin="0s" calcMode="spline" values="0 412.009;0 412.009;0 412.009;0 412.009" keyTimes="0;0.25;0.354167;1" keySplines="0 0 1 1;0.91 0 0.833 1;0 0 1 1" fill="freeze" /><g transform="scale(1,1) translate(-428.205,-412.009)"><g transform="matrix(1,0,0,1,428.205,376.009)"><path d="M-338,462" stroke-width="152" stroke="#fff"><set fill="freeze" dur="0.016667s" begin="0s" to="M-338,462" attributeName="d" /><set fill="freeze" dur="0.016667s" begin="0.016667s" to="M-338,462C-338,462,-338,460.611,-338,457.947" attributeName="d" /><set fill="freeze" dur="0.016667s" begin="0.033333s" to="M-338,462C-338,462,-338,455.998,-338,445.003" attributeName="d" /><set fill="freeze" dur="0.016667s" begin="0.05s" to="M-338,462C-338,462,-338,447.326,-338,421.83" attributeName="d" /><set fill="freeze" dur="0.016667s" begin="0.066667s" to="M-338,462C-338,461.999,-338,433.471,-338,386.856" attributeName="d" /><set fill="freeze" dur="0.016667s" begin="0.083333s" to="M-338,462C-338,461.999,-338,412.899,-338,338.274" attributeName="d" /><set fill="freeze" dur="0.016667s" begin="0.1s" to="M-338,462C-338,461.999,-338,383.473,-338,274.1" attributeName="d" /><set fill="freeze" dur="0.016667s" begin="0.116667s" to="M-338,462C-338,461.999,-338,342.156,-338,192.365" attributeName="d" /><set fill="freeze" dur="0.016667s" begin="0.133333s" to="M-338,462C-338,461.999,-338,284.497,-338,91.531" attributeName="d" /><set fill="freeze" dur="0.016667s" begin="0.15s" to="M-338,462C-338,461.998,-338,203.485,-338,-28.745" attributeName="d" /><set fill="freeze" dur="0.016667s" begin="0.166667s" to="M-338,462C-338,461.998,-338,85.843,-338,-166.593" attributeName="d" /><set fill="freeze" dur="0.016667s" begin="0.183333s" to="M-338,462C-338,461.997,-338,-110.951,-338,-317.159" attributeName="d" /><set fill="freeze" dur="0.016667s" begin="0.2s" to="M-338,462C-338,461.997,-338,-389.997,-338,-390C-338,-389.999,-318.543,-365.792,-285.991,-325.292" attributeName="d" /><set fill="freeze" dur="0.016667s" begin="0.216667s" to="M-338,462C-338,461.997,-338,-389.997,-338,-390C-337.999,-389.999,-276.919,-314.005,-190.138,-206.035" attributeName="d" /><set fill="freeze" dur="0.016667s" begin="0.233333s" to="M-338,462C-338,461.997,-338,-389.997,-338,-390C-337.999,-389.999,-231.644,-257.676,-100.226,-94.169" attributeName="d" /><set fill="freeze" dur="0.016667s" begin="0.25s" to="M-338,462C-338,461.997,-338,-389.997,-338,-390C-337.999,-389.998,-184.684,-199.249,-18.75,7.201" attributeName="d" /><set fill="freeze" dur="0.016667s" begin="0.266667s" to="M-338,462C-338,461.997,-338,-389.997,-338,-390C-337.999,-389.998,-137.326,-140.328,53.333,96.884" attributeName="d" /><set fill="freeze" dur="0.016667s" begin="0.283333s" to="M-338,462C-338,461.997,-338,-389.997,-338,-390C-337.998,-389.998,-90.375,-81.913,116.075,174.946" attributeName="d" /><set fill="freeze" dur="0.016667s" begin="0.3s" to="M-338,462C-338,461.997,-338,-389.997,-338,-390C-337.998,-389.998,-44.288,-24.572,170.07,242.124" attributeName="d" /><set fill="freeze" dur="0.016667s" begin="0.316667s" to="M-338,462C-338,461.997,-338,-389.997,-338,-390C-337.998,-389.998,0.711,31.413,216.127,299.427" attributeName="d" /><set fill="freeze" dur="0.016667s" begin="0.333333s" to="M-338,462C-338,461.997,-338,-389.997,-338,-390C-337.998,-389.997,44.522,85.922,255.083,347.895" attributeName="d" /><set fill="freeze" dur="0.016667s" begin="0.35s" to="M-338,462C-338,461.997,-338,-389.997,-338,-390C-337.998,-389.997,87.129,138.932,287.73,388.513" attributeName="d" /><set fill="freeze" dur="0.016667s" begin="0.366667s" to="M-338,462C-338,461.997,-338,-389.997,-338,-390C-337.998,-389.997,128.555,190.473,314.774,422.16" attributeName="d" /><set fill="freeze" dur="0.016667s" begin="0.383333s" to="M-338,462C-338,461.997,-338,-389.997,-338,-390C-337.998,-389.997,168.848,240.604,336.837,449.61" attributeName="d" /><set fill="freeze" dur="0.016667s" begin="0.4s" to="M-338,462C-338,461.997,-338,-389.997,-338,-390C-337.998,-389.997,208.068,289.4,354.461,471.537" attributeName="d" /><set fill="freeze" dur="0.016667s" begin="0.416667s" to="M-338,462C-338,461.997,-338,-389.997,-338,-390C-337.998,-389.997,246.279,336.941,368.109,488.518" attributeName="d" /><set fill="freeze" dur="0.016667s" begin="0.433333s" to="M-338,462C-338,461.997,-338,-389.997,-338,-390C-337.997,-389.997,283.542,383.302,378.184,501.053" attributeName="d" /><set fill="freeze" dur="0.016667s" begin="0.45s" to="M-338,462C-338,461.997,-338,-389.997,-338,-390C-337.997,-389.997,319.911,428.551,385.031,509.571" attributeName="d" /><set fill="freeze" dur="0.016667s" begin="0.466667s" to="M-338,462C-338,461.997,-338,-389.997,-338,-390C-337.997,-389.997,355.448,472.766,388.951,514.448" attributeName="d" /><set fill="freeze" dur="0.016667s" begin="0.483333s" to="M-338,462C-338,462,-338,-390,-338,-390C-338,-390,390.205,516.009,390.205,516.009" attributeName="d" /></path></g></g></g></g></g><g display="none"><g transform="translate(2000,0)"><animateTransform repeatCount="indefinite" type="translate" attributeName="transform" dur="4s" begin="0s" calcMode="spline" values="2000 0;2000 0;428.205 0;428.205 0" keyTimes="0;0.25;0.354167;1" keySplines="0 0 1 1;0.91 0 0.833 1;0 0 1 1" fill="freeze" /><g transform="translate(0,412.009)"><animateTransform repeatCount="indefinite" type="translate" attributeName="transform" dur="4s" begin="0s" calcMode="spline" values="0 412.009;0 412.009;0 412.009;0 412.009" keyTimes="0;0.25;0.354167;1" keySplines="0 0 1 1;0.91 0 0.833 1;0 0 1 1" fill="freeze" /><g transform="scale(1,1) translate(-428.205,-412.009)"><g transform="matrix(1,0,0,1,428.205,412.009)"><path fill="#fff" d="M406.208,398.336C406.208,398.336,-235.354,-398.336,-235.354,-398.336C-235.354,-398.336,-406.208,-398.336,-406.208,-398.336C-406.208,-398.336,-406.208,398.004,-406.208,398.004C-406.208,398.004,-269.524,398.004,-269.524,398.004C-269.524,398.004,-269.524,-228.118,-269.524,-228.118C-269.524,-228.118,234.498,398.336,234.498,398.336C234.498,398.336,406.208,398.336,406.208,398.336Z" /></g></g></g></g></g></g></g><g transform="matrix(1,0,0,1,0,0)"><g clip-path="url(#undefinedi0)"><g display="none"><animate repeatCount="indefinite" begin="0s" calcMode="discrete" dur="4s" values="none;inline;inline" keyTimes="0;0.099792;1" attributeName="display" /><g transform="translate(2613,0)"><animateTransform repeatCount="indefinite" type="translate" attributeName="transform" dur="4s" begin="0s" calcMode="spline" values="2613 0;2613 0;1174.124 0;1174.124 0" keyTimes="0;0.25;0.354167;1" keySplines="0 0 1 1;0.88 0 0.833 1;0 0 1 1" fill="freeze" /><g transform="translate(0,412.175)"><animateTransform repeatCount="indefinite" type="translate" attributeName="transform" dur="4s" begin="0s" calcMode="spline" values="0 412.175;0 412.175;0 412.175;0 412.175" keyTimes="0;0.25;0.354167;1" keySplines="0 0 1 1;0.88 0 0.833 1;0 0 1 1" fill="freeze" /><g transform="scale(1,1) translate(-1174.124,-412.175)"><g transform="matrix(1,0,0,1,1174.124,412.175)"><path d="M-207.008,385.572C-207.008,385.572,-207.942,398.178,-207.942,398.178C-207.942,398.178,-344.5,398.169,-344.5,398.169C-344.5,398.169,-343.624,385.831,-343.624,385.831C-343.624,385.831,-207.008,385.572,-207.008,385.572Z" fill="#fff"><animate repeatCount="indefinite" attributeName="d" dur="4s" begin="0s" calcMode="spline" values="M-207.008,385.572C-207.008,385.572,-207.942,398.178,-207.942,398.178C-207.942,398.178,-344.5,398.169,-344.5,398.169C-344.5,398.169,-343.624,385.831,-343.624,385.831C-343.624,385.831,-207.008,385.572,-207.008,385.572Z;M-207.008,385.572C-207.008,385.572,-207.942,398.178,-207.942,398.178C-207.942,398.178,-344.5,398.169,-344.5,398.169C-344.5,398.169,-343.624,385.831,-343.624,385.831C-343.624,385.831,-207.008,385.572,-207.008,385.572Z;M-207.942,-398.428C-207.942,-398.428,-207.942,398.178,-207.942,398.178C-207.942,398.178,-344.5,398.169,-344.5,398.169C-344.5,398.169,-344.558,-398.169,-344.558,-398.169C-344.558,-398.169,-207.942,-398.428,-207.942,-398.428Z;M-207.942,-398.428C-207.942,-398.428,-207.942,398.178,-207.942,398.178C-207.942,398.178,-344.5,398.169,-344.5,398.169C-344.5,398.169,-344.558,-398.169,-344.558,-398.169C-344.558,-398.169,-207.942,-398.428,-207.942,-398.428Z" keyTimes="0;0.1;0.179167;1" keySplines="0 0 1 1;0.248 0 0 1;0 0 1 1" fill="freeze" /></path></g></g></g></g></g><g transform="translate(2613,0)"><animateTransform repeatCount="indefinite" type="translate" attributeName="transform" dur="4s" begin="0s" calcMode="spline" values="2613 0;2613 0;1174.124 0;1174.124 0" keyTimes="0;0.25;0.354167;1" keySplines="0 0 1 1;0.88 0 0.833 1;0 0 1 1" fill="freeze" /><g transform="translate(0,412.175)"><animateTransform repeatCount="indefinite" type="translate" attributeName="transform" dur="4s" begin="0s" calcMode="spline" values="0 412.175;0 412.175;0 412.175;0 412.175" keyTimes="0;0.25;0.354167;1" keySplines="0 0 1 1;0.88 0 0.833 1;0 0 1 1" fill="freeze" /><g transform="scale(1,1) translate(-1174.124,-412.175)"><g display="none"><animate repeatCount="indefinite" begin="0s" calcMode="discrete" dur="4s" values="none;inline;inline" keyTimes="0;0.312292;1" attributeName="display" /><g transform="translate(1305.566,0)"><animateTransform repeatCount="indefinite" type="translate" attributeName="transform" dur="4s" begin="0s" calcMode="spline" values="1305.566 0;1305.566 0;829.566 0;829.566 0" keyTimes="0;0.345833;0.416666;1" keySplines="0 0 1 1;0.496 0 0.433 1;0 0 1 1" fill="freeze" /><g transform="translate(0,412.05)"><g transform="scale(0,1)"><animateTransform repeatCount="indefinite" type="scale" attributeName="transform" dur="4s" begin="0s" calcMode="spline" values="0 1;0 1;1 1;1 1" keyTimes="0;0.3125;0.375;1" keySplines="0 0 1 1;0.3 0 0.326 1;0 0 1 1" fill="freeze" /><g transform="translate(-829.566,-412.05)"><g transform="matrix(1,0,0,1,1174.124,412.175)"><path fill="#fff" d="M-344.316,-66.223C-344.316,-66.223,236.403,-66.361,236.403,-66.361C236.403,-66.361,236.403,60.832,236.403,60.832C236.403,60.832,-344.316,60.663,-344.316,60.663C-344.316,60.663,-344.316,-66.223,-344.316,-66.223Z" /></g></g></g></g></g></g></g></g></g><g transform="translate(2613,0)"><animateTransform repeatCount="indefinite" type="translate" attributeName="transform" dur="4s" begin="0s" calcMode="spline" values="2613 0;2613 0;1174.124 0;1174.124 0" keyTimes="0;0.25;0.354167;1" keySplines="0 0 1 1;0.88 0 0.833 1;0 0 1 1" fill="freeze" /><g transform="translate(0,412.175)"><animateTransform repeatCount="indefinite" type="translate" attributeName="transform" dur="4s" begin="0s" calcMode="spline" values="0 412.175;0 412.175;0 412.175;0 412.175" keyTimes="0;0.25;0.354167;1" keySplines="0 0 1 1;0.88 0 0.833 1;0 0 1 1" fill="freeze" /><g transform="scale(1,1) translate(-1174.124,-412.175)"><g display="none"><animate repeatCount="indefinite" begin="0s" calcMode="discrete" dur="4s" values="none;inline;inline" keyTimes="0;0.374792;1" attributeName="display" /><g transform="translate(829.566,0)"><g transform="translate(0,77.602)"><g transform="scale(0,1)"><animateTransform repeatCount="indefinite" type="scale" attributeName="transform" dur="4s" begin="0s" calcMode="spline" values="0 1;0 1;1 1;1 1" keyTimes="0;0.375;0.458333;1" keySplines="0 0 1 1;0.167 0 0.275 1;0 0 1 1" fill="freeze" /><g transform="translate(-829.566,-77.602)"><g transform="matrix(1,0,0,1,1174.124,412.175)"><path fill="#fff" d="M344.558,-398.169C344.558,-398.169,344.558,-270.976,344.558,-270.976C344.558,-270.976,-207.816,-270.976,-207.816,-270.976C-207.816,-270.976,-344.5,-270.976,-344.5,-270.976C-344.5,-270.976,-344.558,-270.976,-344.558,-270.976C-344.558,-270.976,-344.558,-398.169,-344.558,-398.169C-344.558,-398.169,344.558,-398.169,344.558,-398.169Z" /></g></g></g></g></g></g></g></g></g><g transform="translate(2613,0)"><animateTransform repeatCount="indefinite" type="translate" attributeName="transform" dur="4s" begin="0s" calcMode="spline" values="2613 0;2613 0;1174.124 0;1174.124 0" keyTimes="0;0.25;0.354167;1" keySplines="0 0 1 1;0.88 0 0.833 1;0 0 1 1" fill="freeze" /><g transform="translate(0,412.175)"><animateTransform repeatCount="indefinite" type="translate" attributeName="transform" dur="4s" begin="0s" calcMode="spline" values="0 412.175;0 412.175;0 412.175;0 412.175" keyTimes="0;0.25;0.354167;1" keySplines="0 0 1 1;0.88 0 0.833 1;0 0 1 1" fill="freeze" /><g transform="scale(1,1) translate(-1174.124,-412.175)"><g display="none"><animate repeatCount="indefinite" begin="0s" calcMode="discrete" dur="4s" values="none;inline;inline" keyTimes="0;0.374792;1" attributeName="display" /><g transform="translate(829.566,0)"><g transform="translate(0,746.738)"><g transform="scale(0,1)"><animateTransform repeatCount="indefinite" type="scale" attributeName="transform" dur="4s" begin="0s" calcMode="spline" values="0 1;0 1;1 1;1 1" keyTimes="0;0.375;0.458333;1" keySplines="0 0 1 1;0.167 0 0.275 1;0 0 1 1" fill="freeze" /><g transform="translate(-829.566,-746.738)"><g transform="matrix(1,0,0,1,1174.124,412.175)"><path fill="#fff" d="M-341.816,270.955C-341.816,270.955,344.558,270.977,344.558,270.977C344.558,270.977,344.558,398.169,344.558,398.169C344.558,398.169,-344.5,398.169,-344.5,398.169C-344.5,398.169,-341.816,270.955,-341.816,270.955Z" /></g></g></g></g></g></g></g></g></g></g></g><g display="none"><animate repeatCount="indefinite" begin="0s" calcMode="discrete" dur="4s" values="none;inline;inline" keyTimes="0;0.316458;1" attributeName="display" /><g transform="translate(2281.695,0)"><animateTransform repeatCount="indefinite" type="translate" attributeName="transform" dur="4s" begin="0s" calcMode="spline" values="2281.695 0;2281.695 0;2093.695 0;2093.695 0" keyTimes="0;0.316667;0.420833;1" keySplines="0 0 1 1;0.097 0 0.167 1;0 0 1 1" fill="freeze" /><g transform="translate(0,412.812)"><g transform="scale(1,1) translate(-2093.695,-412.812)"><g transform="matrix(1,0,0,1,2093.951,412.508)"><path d="M-231.172,-398.17C-231.172,-398.17,-410.049,-398.17,-410.049,-398.17C-410.049,-398.17,-0.657,108.41,-0.657,108.41C-0.657,108.41,86.742,5.41,86.742,5.41C86.742,5.41,-231.172,-398.17,-231.172,-398.17Z" fill="#fff"><animate repeatCount="indefinite" attributeName="d" dur="4s" begin="0s" calcMode="spline" values="M-231.172,-398.17C-231.172,-398.17,-410.049,-398.17,-410.049,-398.17C-410.049,-398.17,-0.657,108.41,-0.657,108.41C-0.657,108.41,86.742,5.41,86.742,5.41C86.742,5.41,-231.172,-398.17,-231.172,-398.17Z;M-231.172,-398.17C-231.172,-398.17,-410.049,-398.17,-410.049,-398.17C-410.049,-398.17,-0.657,108.41,-0.657,108.41C-0.657,108.41,86.742,5.41,86.742,5.41C86.742,5.41,-231.172,-398.17,-231.172,-398.17Z;M-231.172,-398.17C-231.172,-398.17,-410.049,-398.17,-410.049,-398.17C-410.049,-398.17,-0.657,108.41,-0.657,108.41C-0.657,108.41,86.742,5.41,86.742,5.41C86.742,5.41,-231.172,-398.17,-231.172,-398.17Z;M-231.172,-398.17C-231.172,-398.17,-410.049,-398.17,-410.049,-398.17C-410.049,-398.17,230.65,398.17,230.65,398.17C230.65,398.17,410.049,398.17,410.049,398.17C410.049,398.17,-231.172,-398.17,-231.172,-398.17Z;M-231.172,-398.17C-231.172,-398.17,-410.049,-398.17,-410.049,-398.17C-410.049,-398.17,230.65,398.17,230.65,398.17C230.65,398.17,410.049,398.17,410.049,398.17C410.049,398.17,-231.172,-398.17,-231.172,-398.17Z" keyTimes="0;0.333333;0.4;0.491667;1" keySplines="0 0 1 1;0 0 1 1;0.167 0.167 0 1;0 0 1 1" fill="freeze" /></path></g></g></g></g></g><g transform="translate(2281.695,0)"><animateTransform repeatCount="indefinite" type="translate" attributeName="transform" dur="4s" begin="0s" calcMode="spline" values="2281.695 0;2281.695 0;2093.695 0;2093.695 0" keyTimes="0;0.316667;0.420833;1" keySplines="0 0 1 1;0.097 0 0.167 1;0 0 1 1" fill="freeze" /><g transform="translate(0,412.812)"><g transform="scale(1,1) translate(-2093.695,-412.812)"><g transform="matrix(1,0,0,1,0,0)" display="none"><animate repeatCount="indefinite" begin="0s" calcMode="discrete" dur="4s" values="none;inline;inline" keyTimes="0;0.316458;1" attributeName="display" /><g transform="matrix(1,0,0,1,1864.863,641.538)"><path d="M296.251,-200.027C296.251,-200.027,206.672,-311.405,206.672,-311.405C206.672,-311.405,-181.473,169.748,-181.473,169.748C-181.473,169.748,-2.083,169.748,-2.083,169.748C-2.083,169.748,296.251,-200.027,296.251,-200.027Z" fill="#fff"><animate repeatCount="indefinite" attributeName="d" dur="4s" begin="0s" calcMode="spline" values="M296.251,-200.027C296.251,-200.027,206.672,-311.405,206.672,-311.405C206.672,-311.405,-181.473,169.748,-181.473,169.748C-181.473,169.748,-2.083,169.748,-2.083,169.748C-2.083,169.748,296.251,-200.027,296.251,-200.027Z;M296.251,-200.027C296.251,-200.027,206.672,-311.405,206.672,-311.405C206.672,-311.405,-181.473,169.748,-181.473,169.748C-181.473,169.748,-2.083,169.748,-2.083,169.748C-2.083,169.748,296.251,-200.027,296.251,-200.027Z;M296.251,-200.027C296.251,-200.027,206.672,-311.405,206.672,-311.405C206.672,-311.405,-181.473,169.748,-181.473,169.748C-181.473,169.748,-2.083,169.748,-2.083,169.748C-2.083,169.748,296.251,-200.027,296.251,-200.027Z;M181.473,-58.37C181.473,-58.37,91.893,-169.748,91.893,-169.748C91.893,-169.748,-181.473,169.748,-181.473,169.748C-181.473,169.748,-2.083,169.748,-2.083,169.748C-2.083,169.748,181.473,-58.37,181.473,-58.37Z;M181.473,-58.37C181.473,-58.37,91.893,-169.748,91.893,-169.748C91.893,-169.748,-181.473,169.748,-181.473,169.748C-181.473,169.748,-2.083,169.748,-2.083,169.748C-2.083,169.748,181.473,-58.37,181.473,-58.37Z" keyTimes="0;0.395833;0.441667;0.525;1" keySplines="0 0 1 1;0 0 1 1;0.167 0.167 0.142 1;0 0 1 1" fill="freeze" /></path></g></g></g></g></g><g transform="translate(2281.695,0)"><animateTransform repeatCount="indefinite" type="translate" attributeName="transform" dur="4s" begin="0s" calcMode="spline" values="2281.695 0;2281.695 0;2093.695 0;2093.695 0" keyTimes="0;0.316667;0.420833;1" keySplines="0 0 1 1;0.097 0 0.167 1;0 0 1 1" fill="freeze" /><g transform="translate(0,412.812)"><g transform="scale(1,1) translate(-2093.695,-412.812)"><g transform="matrix(1,0,0,1,0,0)" display="none"><animate repeatCount="indefinite" begin="0s" calcMode="discrete" dur="4s" values="none;inline;inline" keyTimes="0;0.441458;1" attributeName="display" /><g transform="matrix(1,0,0,1,2093.951,412.508)"><path d="M85.659,3.774C85.659,3.774,89.537,10.438,89.537,10.438C89.537,10.438,-5.35,-109.286,-5.35,-109.286C-5.35,-109.286,-3.899,-107.451,-3.899,-107.451C-3.899,-107.451,85.659,3.774,85.659,3.774Z" fill="#fff"><animate repeatCount="indefinite" attributeName="d" dur="4s" begin="0s" calcMode="spline" values="M85.659,3.774C85.659,3.774,89.537,10.438,89.537,10.438C89.537,10.438,-5.35,-109.286,-5.35,-109.286C-5.35,-109.286,-3.899,-107.451,-3.899,-107.451C-3.899,-107.451,85.659,3.774,85.659,3.774Z;M85.659,3.774C85.659,3.774,89.537,10.438,89.537,10.438C89.537,10.438,-5.35,-109.286,-5.35,-109.286C-5.35,-109.286,-3.899,-107.451,-3.899,-107.451C-3.899,-107.451,85.659,3.774,85.659,3.774Z;M85.659,3.774C85.659,3.774,409.537,-397.562,409.537,-397.562C409.537,-397.562,230.65,-397.286,230.65,-397.286C230.65,-397.286,-3.899,-107.451,-3.899,-107.451C-3.899,-107.451,85.659,3.774,85.659,3.774Z;M85.659,3.774C85.659,3.774,409.537,-397.562,409.537,-397.562C409.537,-397.562,230.65,-397.286,230.65,-397.286C230.65,-397.286,-3.899,-107.451,-3.899,-107.451C-3.899,-107.451,85.659,3.774,85.659,3.774Z" keyTimes="0;0.441667;0.525;1" keySplines="0 0 1 1;0.167 0 0 1;0 0 1 1" fill="freeze" /></path></g></g></g></g></g><g display="none"><animate repeatCount="indefinite" begin="0s" calcMode="discrete" dur="4s" values="none;inline;inline" keyTimes="0;0.374792;1" attributeName="display" /><g transform="translate(3643.139,0)"><animateTransform repeatCount="indefinite" type="translate" attributeName="transform" dur="4s" begin="0s" calcMode="spline" values="3643.139 0;3643.139 0;3065.139 0;3341.139 0;3341.139 0" keyTimes="0;0.375;0.425;0.504167;1" keySplines="0 0 1 1;0.167 0 0.255 1;0.167 0 0.255 1;0 0 1 1" fill="freeze" /><g transform="translate(0,77.602)"><g transform="scale(0,1)"><animateTransform repeatCount="indefinite" type="scale" attributeName="transform" dur="4s" begin="0s" calcMode="spline" values="0 1;0 1;0.99 1;1 1;1 1" keyTimes="0;0.375;0.425;0.504167;1" keySplines="0 0 1 1;0.167 0 0.089 1;0.167 0 0.833 1;0 0 1 1" fill="freeze" /><g transform="translate(-3341.139,-77.602)"><g transform="matrix(1,0,0,1,2996.58,412.175)"><path fill="#fff" d="M-344.56,-398.169C-344.56,-398.169,344.559,-398.169,344.559,-398.169C344.559,-398.169,344.559,-270.976,344.559,-270.976C344.559,-270.976,-344.56,-270.976,-344.56,-270.976C-344.56,-270.976,-344.56,-398.169,-344.56,-398.169Z" /></g></g></g></g></g></g><g display="none"><animate repeatCount="indefinite" begin="0s" calcMode="discrete" dur="4s" values="none;inline;inline" keyTimes="0;0.353958;1" attributeName="display" /><g transform="translate(2999.425,810.345)"><g transform="scale(1,0)"><animateTransform repeatCount="indefinite" type="scale" attributeName="transform" dur="4s" begin="0s" calcMode="spline" values="1 0;1 0;1 1;1 1" keyTimes="0;0.354167;0.425;1" keySplines="0 0 1 1;0.167 0 0.127 1;0 0 1 1" fill="freeze" /><g transform="translate(-2999.425,-810.345)"><g transform="matrix(1,0,0,1,2996.58,412.175)"><path fill="#fff" d="M70.385,-304.976C70.385,-304.976,71.192,398.169,71.192,398.169C71.192,398.169,-65.501,398.169,-65.501,398.169C-65.501,398.169,-66.308,-304.976,-66.308,-304.976C-66.308,-304.976,70.385,-304.976,70.385,-304.976Z" /></g></g></g></g></g><g opacity="0" display="none"><animate repeatCount="indefinite" begin="0s" calcMode="discrete" dur="4s" values="none;inline;inline" keyTimes="0;0.391458;1" attributeName="display" /><animate repeatCount="indefinite" attributeName="opacity" dur="4s" begin="0s" fill="freeze" values="0;0;1;1" keyTimes="0;0.391667;0.425;1" keySplines="0 0 1 1;0.167 0 0.833 1;0 0 1 1" calcMode="spline" /><g transform="translate(3450.969,0)"><animateTransform repeatCount="indefinite" type="translate" attributeName="transform" dur="4s" begin="0s" calcMode="spline" values="3450.969 0;3450.969 0;3656.969 0;3656.969 0" keyTimes="0;0.391667;0.5;1" keySplines="0 0 1 1;0.167 0 0.086 1;0 0 1 1" fill="freeze" /><g transform="translate(0,636.238)"><g transform="scale(1,1) translate(-3656.969,-636.238)"><g transform="matrix(1,0,0,1,3371.77,769.981)"><path fill="#fff" d="M0.096,35.5C-9.915,35.5,-18.43,32.033,-25.56,25.097C-32.689,18.162,-36.215,9.765,-36.124,-0.182C-36.215,-9.856,-32.689,-18.161,-25.56,-25.097C-18.43,-32.032,-9.915,-35.5,0.096,-35.5C9.726,-35.5,18.15,-32.032,25.28,-25.097C32.509,-18.161,36.114,-9.856,36.215,-0.182C36.114,6.388,34.448,12.411,31.114,17.795C27.69,23.272,23.342,27.561,17.869,30.664C12.497,33.858,6.573,35.5,0.096,35.5Z" /></g><g transform="matrix(1,0,0,1,3559.172,638.246)"><path fill="#fff" d="M45.984,-168.24C45.984,-168.24,106.554,-168.24,106.554,-168.24C106.554,-168.24,106.554,65.115,106.554,65.115C106.463,86.562,101.824,104.904,92.757,120.328C83.589,135.75,70.897,147.523,54.6,155.828C38.393,164.041,19.405,168.24,-2.174,168.24C-21.905,168.24,-39.589,164.68,-55.333,157.745C-71.078,150.809,-83.579,140.404,-92.747,126.715C-102.015,113.026,-106.554,95.96,-106.554,75.518C-106.554,75.518,-45.884,75.518,-45.884,75.518C-45.794,84.462,-43.755,92.218,-39.87,98.698C-35.984,105.177,-30.611,110.105,-23.753,113.573C-16.815,117.041,-8.842,118.776,0.135,118.776C9.866,118.776,18.2,116.768,24.958,112.661C31.715,108.646,36.907,102.622,40.522,94.591C44.036,86.652,45.894,76.796,45.984,65.115C45.984,65.115,45.984,-168.24,45.984,-168.24Z" /></g><g transform="matrix(1,0,0,1,3849.051,636.238)"><path fill="#fff" d="M65.892,-74.971C64.416,-89.116,57.929,-100.159,46.633,-108.007C35.236,-115.947,20.514,-119.871,2.449,-119.871C-10.233,-119.871,-21.158,-117.954,-30.235,-114.213C-39.313,-110.38,-46.351,-105.27,-51.172,-98.79C-55.981,-92.31,-58.391,-84.918,-58.582,-76.613C-58.582,-69.677,-56.915,-63.654,-53.672,-58.635C-50.428,-53.525,-46.08,-49.235,-40.427,-45.767C-34.874,-42.208,-28.669,-39.288,-21.901,-36.915C-15.053,-34.542,-8.193,-32.534,-1.345,-30.891C-1.345,-30.891,30.234,-23.134,30.234,-23.134C42.926,-20.214,55.248,-16.289,67.007,-11.271C78.765,-6.342,89.419,-0.045,98.767,7.529C108.126,15.104,115.537,24.23,120.999,34.908C126.461,45.585,129.242,58.087,129.242,72.507C129.242,91.945,124.241,109.011,114.14,123.795C104.048,138.487,89.508,149.987,70.43,158.292C51.442,166.506,28.478,170.703,1.436,170.703C-24.681,170.703,-47.466,166.688,-66.635,158.657C-85.894,150.718,-100.905,139.036,-111.74,123.703C-122.575,108.372,-128.409,89.663,-129.242,67.67C-129.242,67.67,-69.226,67.67,-69.226,67.67C-68.392,79.168,-64.687,88.751,-58.391,96.508C-52.005,104.174,-43.671,109.832,-33.478,113.665C-23.196,117.406,-11.719,119.323,0.974,119.323C14.218,119.323,25.887,117.315,35.979,113.391C45.98,109.467,53.851,103.992,59.505,96.874C65.248,89.846,68.12,81.542,68.21,72.051C68.12,63.381,65.52,56.17,60.52,50.512C55.429,44.855,48.39,40.109,39.403,36.276C30.335,32.444,19.771,28.975,7.731,25.964C7.731,25.964,-30.606,16.29,-30.606,16.29C-58.3,9.263,-80.251,-1.414,-96.277,-15.742C-112.383,-30.07,-120.355,-49.052,-120.355,-72.871C-120.355,-92.401,-114.983,-109.557,-104.139,-124.251C-93.404,-138.944,-78.675,-150.351,-60.058,-158.474C-41.351,-166.687,-20.234,-170.703,3.283,-170.703C27.181,-170.703,48.108,-166.687,66.172,-158.474C84.226,-150.351,98.405,-139.035,108.677,-124.616C118.96,-110.197,124.332,-93.679,124.614,-74.971C124.614,-74.971,65.892,-74.971,65.892,-74.971Z" /></g></g></g></g></g></svg>